<svg width="128" height="128" viewBox="0 0 128 128" xmlns="http://www.w3.org/2000/svg" fill="none"><defs><linearGradient id="G" x1="10" y1="118" x2="118" y2="10" gradientUnits="userSpaceOnUse"><stop offset="0" stop-color="#34d399"/><stop offset="0.55" stop-color="#10b981"/><stop offset="1" stop-color="#059669"/></linearGradient><linearGradient id="hl" x1="64" y1="6" x2="64" y2="122" gradientUnits="userSpaceOnUse"><stop offset="0" stop-color="#ffffff" stop-opacity="0.22"/><stop offset="0.45" stop-color="#ffffff" stop-opacity="0.05"/><stop offset="1" stop-color="#000000" stop-opacity="0.12"/></linearGradient></defs><rect x="6" y="6" width="116" height="116" rx="30" fill="url(#G)"/><rect x="6" y="6" width="116" height="116" rx="30" fill="url(#hl)"/><g stroke="#ffffff" stroke-width="6" stroke-linejoin="round" fill="none"><path d="M40 36 H74 a6 6 0 0 1 4.3 1.8 L100 59.5 a8 8 0 0 1 0 11.3 L73 98 a8 8 0 0 1 -11.3 0 L40 76.3 a6 6 0 0 1 -1.8 -4.3 V42 a6 6 0 0 1 6 -6 Z"/></g><circle cx="55" cy="51" r="6.5" fill="#ffffff"/><g stroke="#ffffff" stroke-width="5" stroke-linecap="round" stroke-linejoin="round" fill="none"><path d="M63 84 V62 M58 67 L63 62 L68 67"/><path d="M81 60 V82 M76 77 L81 82 L86 77"/></g></svg>