<svg width="128" height="128" viewBox="0 0 128 128" xmlns="http://www.w3.org/2000/svg" fill="none"><defs><linearGradient id="G" x1="10" y1="118" x2="118" y2="10" gradientUnits="userSpaceOnUse"><stop offset="0" stop-color="#34d399"/><stop offset="0.55" stop-color="#10b981"/><stop offset="1" stop-color="#059669"/></linearGradient><linearGradient id="hl" x1="64" y1="6" x2="64" y2="122" gradientUnits="userSpaceOnUse"><stop offset="0" stop-color="#ffffff" stop-opacity="0.22"/><stop offset="0.45" stop-color="#ffffff" stop-opacity="0.05"/><stop offset="1" stop-color="#000000" stop-opacity="0.12"/></linearGradient></defs><rect x="6" y="6" width="116" height="116" rx="30" fill="url(#G)"/><rect x="6" y="6" width="116" height="116" rx="30" fill="url(#hl)"/><g stroke="#ffffff" stroke-width="8" stroke-linejoin="round" stroke-linecap="round" fill="none"><path d="M38 34 H72 a7 7 0 0 1 5 2 L100 59 a9 9 0 0 1 0 12 L72 99 a9 9 0 0 1 -13 0 L36 76 a7 7 0 0 1 -2 -5 V41 a7 7 0 0 1 7 -7 Z"/></g><circle cx="54" cy="52" r="8" fill="#ffffff"/></svg>