<svg width="128" height="128" viewBox="0 0 128 128" xmlns="http://www.w3.org/2000/svg" fill="none"><defs><linearGradient id="G" x1="10" y1="118" x2="118" y2="10" gradientUnits="userSpaceOnUse"><stop offset="0" stop-color="#a78bfa"/><stop offset="0.55" stop-color="#8b5cf6"/><stop offset="1" stop-color="#6366f1"/></linearGradient><linearGradient id="hl" x1="64" y1="6" x2="64" y2="122" gradientUnits="userSpaceOnUse"><stop offset="0" stop-color="#ffffff" stop-opacity="0.22"/><stop offset="0.45" stop-color="#ffffff" stop-opacity="0.05"/><stop offset="1" stop-color="#000000" stop-opacity="0.12"/></linearGradient></defs><rect x="6" y="6" width="116" height="116" rx="30" fill="url(#G)"/><rect x="6" y="6" width="116" height="116" rx="30" fill="url(#hl)"/><path d="M38 30 H70 L86 46 V96 a5 5 0 0 1 -5 5 H38 a5 5 0 0 1 -5 -5 V35 a5 5 0 0 1 5 -5 Z" fill="rgba(255,255,255,0.14)" stroke="#ffffff" stroke-width="7" stroke-linejoin="round"/><g stroke="#ffffff" stroke-width="7" stroke-linecap="round"><path d="M44 60 H72"/><path d="M44 78 H72"/></g><path d="M98 18 L102 30 L114 34 L102 38 L98 50 L94 38 L82 34 L94 30 Z" fill="#ffffff"/></svg>
