<svg width="128" height="128" viewBox="0 0 128 128" xmlns="http://www.w3.org/2000/svg" fill="none"><defs><linearGradient id="G" x1="10" y1="118" x2="118" y2="10" gradientUnits="userSpaceOnUse"><stop offset="0" stop-color="#a78bfa"/><stop offset="0.55" stop-color="#8b5cf6"/><stop offset="1" stop-color="#6366f1"/></linearGradient><linearGradient id="hl" x1="64" y1="6" x2="64" y2="122" gradientUnits="userSpaceOnUse"><stop offset="0" stop-color="#ffffff" stop-opacity="0.22"/><stop offset="0.45" stop-color="#ffffff" stop-opacity="0.05"/><stop offset="1" stop-color="#000000" stop-opacity="0.12"/></linearGradient></defs><rect x="6" y="6" width="116" height="116" rx="30" fill="url(#G)"/><rect x="6" y="6" width="116" height="116" rx="30" fill="url(#hl)"/><path d="M40 32 H72 L84 44 V94 a4 4 0 0 1 -4 4 H40 a4 4 0 0 1 -4 -4 V36 a4 4 0 0 1 4 -4 Z" fill="rgba(255,255,255,0.14)" stroke="#ffffff" stroke-width="4.5" stroke-linejoin="round"/><path d="M72 32 V44 H84 Z" fill="#ffffff" fill-opacity="0.35"/><g stroke="#ffffff" stroke-width="4.5" stroke-linecap="round"><path d="M46 56 H74"/><path d="M46 68 H78"/><path d="M46 80 H66"/></g><path d="M96 20 L99.5 29.5 L109 33 L99.5 36.5 L96 46 L92.5 36.5 L83 33 L92.5 29.5 Z" fill="#ffffff"/></svg>
