<svg width="128" height="128" viewBox="0 0 128 128" xmlns="http://www.w3.org/2000/svg" fill="none"><defs><linearGradient id="G" x1="10" y1="118" x2="118" y2="10" gradientUnits="userSpaceOnUse"><stop offset="0" stop-color="#667eea"/><stop offset="0.55" stop-color="#7c5cf6"/><stop offset="1" stop-color="#9b51e0"/></linearGradient><linearGradient id="hl" x1="64" y1="6" x2="64" y2="122" gradientUnits="userSpaceOnUse"><stop offset="0" stop-color="#ffffff" stop-opacity="0.22"/><stop offset="0.45" stop-color="#ffffff" stop-opacity="0.05"/><stop offset="1" stop-color="#000000" stop-opacity="0.12"/></linearGradient></defs><rect x="6" y="6" width="116" height="116" rx="30" fill="url(#G)"/><rect x="6" y="6" width="116" height="116" rx="30" fill="url(#hl)"/><g transform="translate(26,24) scale(2.7)" stroke="#ffffff" stroke-width="2.0" stroke-linecap="round" stroke-linejoin="round" fill="none"><path d="M16 21v-2a4 4 0 0 0-4-4H7a4 4 0 0 0-4 4v2"/><circle cx="11" cy="7" r="4"/></g><circle cx="95" cy="93" r="22" fill="#ffffff"/><path d="M84 93 H106" stroke="#e74c8b" stroke-width="6" stroke-linecap="round"/><path d="M96 24 c1.6 5.2 2.4 6 7.6 7.6 c-5.2 1.6 -6 2.4 -7.6 7.6 c-1.6 -5.2 -2.4 -6 -7.6 -7.6 c5.2 -1.6 6 -2.4 7.6 -7.6 Z" fill="#ffffff"/></svg>