<svg width="128" height="128" viewBox="0 0 128 128" xmlns="http://www.w3.org/2000/svg" fill="none"><defs><linearGradient id="G" x1="10" y1="118" x2="118" y2="10" gradientUnits="userSpaceOnUse"><stop offset="0" stop-color="#8b5cf6"/><stop offset="0.55" stop-color="#d946ef"/><stop offset="1" stop-color="#ec4899"/></linearGradient><linearGradient id="hl" x1="64" y1="6" x2="64" y2="122" gradientUnits="userSpaceOnUse"><stop offset="0" stop-color="#ffffff" stop-opacity="0.22"/><stop offset="0.45" stop-color="#ffffff" stop-opacity="0.05"/><stop offset="1" stop-color="#000000" stop-opacity="0.12"/></linearGradient></defs><rect x="6" y="6" width="116" height="116" rx="30" fill="url(#G)"/><rect x="6" y="6" width="116" height="116" rx="30" fill="url(#hl)"/><g transform="translate(22,26) scale(2.55)" stroke="#ffffff" stroke-width="2.1" stroke-linecap="round" stroke-linejoin="round" fill="none"><path d="M17 21v-2a4 4 0 0 0-4-4H6a4 4 0 0 0-4 4v2"/><circle cx="9.5" cy="7" r="4"/><path d="M23 21v-2a4 4 0 0 0-3-3.87"/><path d="M16.5 3.2a4 4 0 0 1 0 7.6"/></g><circle cx="94" cy="92" r="23" fill="#ffffff"/><g stroke="#c026d3" stroke-width="5.2" stroke-linecap="round" stroke-linejoin="round" fill="none"><path d="M94 81 V99"/><path d="M86 92 L94 100 L102 92"/></g></svg>